<svg width="18" height="19" viewBox="0 0 18 19" fill="none" xmlns="http://www.w3.org/2000/svg">
<path d="M6.74976 17.8311V11.9553H11.2498V17.8311H17.2498V9.01735C17.2498 8.92087 17.2305 8.82531 17.1929 8.73615C17.1552 8.64699 17.1 8.56596 17.0304 8.4977L9.53038 1.15291C9.46073 1.08462 9.37801 1.03045 9.28696 0.993487C9.19591 0.956525 9.09832 0.9375 8.99976 0.9375C8.90119 0.9375 8.8036 0.956525 8.71255 0.993487C8.6215 1.03045 8.53879 1.08462 8.46913 1.15291L0.969131 8.4977C0.899505 8.56596 0.844295 8.64699 0.806654 8.73615C0.769013 8.82531 0.749679 8.92087 0.749756 9.01735V17.8311H6.74976Z" stroke="white" stroke-width="1.46896" stroke-linecap="round" stroke-linejoin="round"/>
</svg>
